{"title":"Infestation-AC3-5,1-DVDRip[Eng]2009","uid":5100969,"size":1334319613,"categoryP":"video","categoryS":"movies","magnet":"?xt=urn:btih:4478412bb108d340a6627782c55ed5310ad7b73a&amp;dn=Infestation-AC3-5%2C1-DVDRip%5BEng%5D2009&amp;tr=udp%3A%2F%2Ftracker.openbittorrent.com%3A80&amp;tr=udp%3A%2F%2Fopen.demonii.com%3A1337&amp;tr=udp%3A%2F%2Ftracker.coppersurfer.tk%3A6969&amp;tr=udp%3A%2F%2Fexodus.desync.com%3A6969","seeders":0,"leechers":0,"uploader":"FatFreddy31","files":-1,"time":1253976329,"description":" &lt;a href=&quot;http://www.imdb.com/title/tt1020543/&quot; rel=&quot;nofollow&quot; target=&quot;_NEW&quot;&gt;http://www.imdb.com/title/tt1020543/&lt;/a&gt;\n\nUser Rating:6.5/10 - 941 votes\n\nAction,Comedy,Horror\n\nDirector:Kyle Rankin\n\nCast:Diane Gaeta/Deborah Geffner/VJ Kewl/Chris Marquette, and others.\n\nPlot:\nA slacker awakes to find himself weak and wrapped in a webbing; after realizing that the world has been taken over by giant alien insects, he wakes a ragtag group of strangers and together they fight for survival...\n\nInfo:\n\nGeneral\nComplete name                    : Infestation-AC3-5,1-DVDRip[Eng]2009.avi\nFormat                           : AVI\nFormat/Info                      : Audio Video Interleave\nFile size                        : 1.24 GiB\nDuration                         : 1h 31mn\nOverall bit rate                 : 1 953 Kbps\nWriting application              : VirtualDubMod 1.5.4.1 (build 2178/release)\nWriting library                  : VirtualDubMod build 2178/release\n\nVideo\nFormat                           : MPEG-4 Visual\nFormat profile                   : Simple@L3\nFormat settings, BVOP            : No\nFormat settings, QPel            : No\nFormat settings, GMC             : No warppoints\nFormat settings, Matrix          : Default\nCodec ID                         : XVID\nCodec ID/Hint                    : XviD\nDuration                         : 1h 31mn\nBit rate                         : 1 498 Kbps\nWidth                            : 624 pixels\nHeight                           : 352 pixels\nDisplay aspect ratio             : 16/9\nFrame rate                       : 23.976 fps\nResolution                       : 24 bits\nColorimetry                      : 4:2:0\nScan type                        : Progressive\nBits/(Pixel*Frame)               : 0.284\nStream size                      : 976 MiB (77%)\nWriting library                  : XviD 50\n\nAudio\nFormat                           : AC-3\nFormat/Info                      : Audio Coding 3\nCodec ID                         : 2000\nDuration                         : 1h 31mn\nBit rate mode                    : Constant\nBit rate                         : 448 Kbps\nChannel(s)                       : 6 channels\nChannel positions                : Front: L C R, Surround: L R, LFE\nSampling rate                    : 48.0 KHz\nStream size                      : 292 MiB (23%)\nAlignment                        : Split accross interleaves\nInterleave, duration             : 83 ms (2.00 video frames)\nInterleave, preload duration     : 500 ms\nLanguage                         : English\n\nEnjoy...","torrent":{"xt":"urn:btih:4478412bb108d340a6627782c55ed5310ad7b73a","amp;dn":"Infestation-AC3-5%2C1-DVDRip%5BEng%5D2009","amp;tr":["udp%3A%2F%2Ftracker.openbittorrent.com%3A80","udp%3A%2F%2Fopen.demonii.com%3A1337","udp%3A%2F%2Ftracker.coppersurfer.tk%3A6969","udp%3A%2F%2Fexodus.desync.com%3A6969"],"infoHash":"4478412bb108d340a6627782c55ed5310ad7b73a","infoHashBuffer":{"type":"Buffer","data":[68,120,65,43,177,8,211,64,166,98,119,130,197,94,213,49,10,215,183,58]},"announce":[],"urlList":[]}}